<?xml version="1.0" encoding="utf-8"?>
<!-- Generator: Adobe Illustrator 27.0.0, SVG Export Plug-In . SVG Version: 6.00 Build 0)  -->
<svg version="1.1" id="Capa_1" xmlns="http://www.w3.org/2000/svg" xmlns:xlink="http://www.w3.org/1999/xlink" x="0px" y="0px"
	 viewBox="0 0 341 181.5" style="enable-background:new 0 0 341 181.5;" xml:space="preserve">
<style type="text/css">
	.st0{enable-background:new    ;}
	.st1{fill:#FFFFFF;}
	.st2{fill:#BEBEBE;}
</style>
<g>
	<g>
		<g class="st0">
			<path class="st1" d="M13.3,139.8c0.8,5,5.3,5.7,8.4,5.7c2.9,0,7.4-0.8,7.4-4.7c0-8.1-22.5-2.9-22.5-17c0-7.8,7.3-11.4,14.1-11.4
				c7.9,0,15.1,3.4,15.1,12.2l-8.1-1.2c-1-4.4-4.9-4.6-7.5-4.6c-2.6,0-5.7,1.1-5.7,4.3c0,2.8,1.8,3.4,11.3,5.7
				c2.8,0.7,11.2,2.4,11.2,11c0,6.9-5.4,12.1-15.7,12.1c-8.5,0-16.1-4.1-16.1-13.5L13.3,139.8z"/>
			<path class="st1" d="M62.8,136.3l-13.9-23.1h9.4l8.8,14.9l8.8-14.9h9.3l-14,23.3V151h-8.3V136.3z"/>
			<path class="st1" d="M105.8,124.9V151h-7.3v-38h9.5l16.9,23.6v-23.6h7v38h-7L105.8,124.9z"/>
			<path class="st1" d="M156.6,135.9v8.1h21.3v7h-29.4V113h27.6v7h-19.5v8.5h17.3v7.4H156.6z"/>
			<path class="st1" d="M216.3,137l10.6,14h-10.2l-9.5-13.6h-4.1V151h-8.4v-37.9h17.1c9.5,0,13.2,6,13.2,12.1c0,5.1-2.7,10.3-9,11.7
				H216.3z M203.2,119.6V131h6.5c4,0,7.3-0.9,7.3-5.7c0-4.9-3.3-5.7-7.3-5.7H203.2z"/>
			<path class="st1" d="M277.6,141.5c-3.2,6.1-9.8,10.2-17.2,10.2c-10.8,0-19.5-8.8-19.5-19.6c0-10.8,8.8-19.5,19.5-19.5
				c7.3,0,13.7,4.1,17.1,10c-3.3,1.7-3.6,1.9-7.3,3.7c-2-3.4-5.6-5.6-9.8-5.6c-6.4,0-11.4,5.1-11.4,11.4c0,6.4,5.1,11.4,11.4,11.4
				c4.2,0,8.5-2.1,10-5.7h-0.8c-1.7,0-5.6,0.1-7.7,0.1c-1,0-1.5,0-1.5-0.1v-7c5.3,0,12.8,0.1,19.3,0.1
				C279.8,131.9,279.6,138.9,277.6,141.5z"/>
			<path class="st1" d="M305,136.3L291,113.2h9.4l8.8,14.9l8.8-14.9h9.3l-14,23.3V151H305V136.3z"/>
		</g>
	</g>
	<g>
		<g class="st0">
			<path class="st1" d="M42.7,173.2v2.7h-3.1v-14.7h10.7v2.7h-7.6v3.3h6.7v2.8h-6.7V173.2z"/>
			<path class="st1" d="M69.1,161.3h3.2v14.6h-3.2V161.3z"/>
			<path class="st1" d="M94.6,165.8v10.1h-2.8v-14.7h3.7l6.5,9.1v-9.1h2.7v14.7H102L94.6,165.8z"/>
			<path class="st1" d="M122.9,175.9l6.6-14.6h3.2l6.5,14.6h-3.1l-1.4-3.2h-7.4l-1.5,3.2H122.9z M131.2,164.1l-2.5,5.7h4.9
				L131.2,164.1L131.2,164.1z"/>
			<path class="st1" d="M160.3,165.8v10.1h-2.8v-14.7h3.7l6.5,9.1v-9.1h2.7v14.7h-2.7L160.3,165.8z"/>
			<path class="st1" d="M196.6,176c-4.1,0-7.4-3.3-7.4-7.4c0-4.1,3.3-7.4,7.4-7.4c2.8,0,5.2,1.6,6.4,3.8c-1.2,0.7-1.4,0.7-2.7,1.4
				c-0.7-1.2-2.1-2.1-3.7-2.1c-2.4,0-4.3,2-4.3,4.3c0,2.4,1.9,4.3,4.3,4.3c1.6,0,3.1-0.9,3.8-2.3c1.4,0.7,1.4,0.8,2.7,1.4
				C201.9,174.4,199.5,176,196.6,176z"/>
			<path class="st1" d="M222.1,161.3h3.2v14.6h-3.2V161.3z"/>
			<path class="st1" d="M243.7,175.9l6.6-14.6h3.2l6.5,14.6H257l-1.4-3.2h-7.4l-1.5,3.2H243.7z M252,164.1l-2.5,5.7h4.9L252,164.1
				L252,164.1z"/>
			<path class="st1" d="M278.4,175.8v-14.6h3.2v11.9h7.5v2.7H278.4z"/>
		</g>
	</g>
	<polygon class="st2" points="127,44.4 211.1,52 203.5,59.7 119.4,52 	"/>
	<polygon class="st1" points="211.1,52 203.5,59.7 165.3,21.4 157.7,29 195.8,67.3 165.3,97.9 119.4,52 127,44.4 165.3,82.6 
		172.9,75 134.7,36.7 165.3,6.1 	"/>
</g>
</svg>
